<svg width="124" height="18" viewBox="0 0 124 18" fill="none" xmlns="http://www.w3.org/2000/svg">
<path d="M69.929 5.7534e-07H68.5756V10.8317C68.5745 11.3108 68.3837 11.7701 68.045 12.109C67.7064 12.448 67.2473 12.6391 66.7681 12.6406H64.9668C64.4879 12.6383 64.0293 12.447 63.6908 12.1082C63.3523 11.7694 63.1613 11.3106 63.1594 10.8317V7.21861C63.1615 6.74045 63.3528 6.28257 63.6914 5.94504C64.0301 5.6075 64.4887 5.41776 64.9668 5.41729H67.2258C67.3455 5.41653 67.4601 5.36851 67.5446 5.28368C67.6291 5.19885 67.6766 5.08407 67.6769 4.96434V3.60841H64.9675C64.0118 3.6124 63.0964 3.9942 62.4211 4.67053C61.7457 5.34687 61.3653 6.26284 61.3627 7.21861V10.8317C61.3643 11.788 61.7444 12.7048 62.4199 13.3817C63.0953 14.0587 64.0113 14.4407 64.9675 14.4444H66.7689C67.7265 14.4416 68.644 14.0601 69.3215 13.3833C69.9989 12.7065 70.3811 11.7893 70.3848 10.8317V0.453293C70.3844 0.33278 70.3361 0.217376 70.2506 0.132397C70.1652 0.0474176 70.0495 -0.0001909 69.929 5.7534e-07Z" fill="white"/>
<path d="M120.012 3.6084H116.403V4.96433C116.403 5.0836 116.45 5.19794 116.534 5.28268C116.618 5.36742 116.732 5.41576 116.851 5.41727H120.013C120.381 5.4165 120.74 5.52834 121.042 5.73775C121.344 5.94717 121.575 6.24411 121.704 6.58866L117.68 7.25745C116.778 7.39143 115.96 7.86149 115.39 8.57334C114.821 9.28518 114.541 10.1862 114.608 11.0956C114.674 12.005 115.082 12.8555 115.75 13.4766C116.418 14.0977 117.295 14.4435 118.207 14.4444H120.014C120.971 14.4432 121.888 14.0626 122.564 13.3863C123.24 12.7099 123.621 11.7929 123.622 10.8364V7.2186C123.622 6.74447 123.529 6.27498 123.347 5.83693C123.166 5.39887 122.9 5.00085 122.565 4.66559C122.23 4.33034 121.832 4.0644 121.393 3.88301C120.955 3.70161 120.486 3.6083 120.012 3.6084ZM121.817 10.8364C121.816 11.3146 121.626 11.773 121.288 12.1111C120.95 12.4492 120.491 12.6396 120.013 12.6406H118.206C117.773 12.6392 117.355 12.4829 117.028 12.1999C116.701 11.917 116.486 11.5261 116.422 11.0983C116.359 10.6704 116.45 10.2339 116.681 9.8678C116.911 9.50175 117.265 9.23042 117.679 9.10303L121.816 8.42129L121.817 10.8364Z" fill="white"/>
<path d="M85.2707 12.6406H84.8156C84.3382 12.6388 83.8809 12.4479 83.5437 12.1098C83.2066 11.7717 83.0172 11.3138 83.0168 10.8364V0.453292C83.0166 0.333252 82.9689 0.218179 82.8841 0.133231C82.7993 0.0482824 82.6843 0.000380325 82.5642 0H81.2094V10.8364C81.2105 11.7911 81.5896 12.7066 82.2637 13.3827C82.9378 14.0588 83.8522 14.4405 84.807 14.4444H85.2747C85.3937 14.4432 85.5075 14.3948 85.591 14.31C85.6746 14.2251 85.7211 14.1106 85.7204 13.9915V13.0921C85.7208 13.0328 85.7095 12.9741 85.6871 12.9192C85.6647 12.8644 85.6316 12.8145 85.5898 12.7725C85.5479 12.7305 85.4982 12.6972 85.4434 12.6746C85.3887 12.6519 85.33 12.6404 85.2707 12.6406Z" fill="white"/>
<path d="M76.6998 3.6084H74.8887C73.9323 3.61068 73.0158 3.99189 72.3398 4.66856C71.6639 5.34522 71.2837 6.26217 71.2825 7.2186V10.8364C71.2832 11.7933 71.6639 12.7108 72.3409 13.3872C73.0179 14.0635 73.9357 14.4434 74.8927 14.4433H78.5015V13.0906C78.5014 13.0313 78.4896 12.9726 78.4669 12.9179C78.4441 12.8631 78.4107 12.8134 78.3686 12.7716C78.3266 12.7298 78.2767 12.6967 78.2218 12.6742C78.1669 12.6517 78.1082 12.6403 78.0489 12.6406H74.8887C74.5203 12.6398 74.1609 12.5264 73.8587 12.3156C73.5565 12.1048 73.3259 11.8067 73.1978 11.4613L77.2272 10.795C78.1285 10.6605 78.9457 10.1904 79.5151 9.4788C80.0844 8.76724 80.3639 7.86681 80.2974 6.95792C80.2309 6.04904 79.8234 5.19885 79.1566 4.5777C78.4898 3.95654 77.6129 3.61032 76.7016 3.6084H76.6998ZM77.2254 8.94941L73.0881 9.63296V7.22003C73.0878 6.9836 73.1341 6.74942 73.2243 6.53089C73.3146 6.31236 73.447 6.11377 73.6141 5.94646C73.7811 5.77916 73.9796 5.64644 74.198 5.55588C74.4164 5.46533 74.6505 5.41871 74.8869 5.41871H76.6983C77.1306 5.41946 77.5483 5.57528 77.8755 5.85785C78.2026 6.14043 78.4176 6.531 78.4812 6.95859C78.5448 7.38618 78.4529 7.8224 78.2222 8.18799C77.9915 8.55358 77.6373 8.82426 77.2239 8.95085L77.2254 8.94941Z" fill="white"/>
<path d="M15.3391 3.53003H13.5364C12.5802 3.53391 11.6643 3.91556 10.9883 4.59179C10.3122 5.26803 9.93085 6.18405 9.92725 7.14024V10.7584C9.93085 11.7146 10.3122 12.6306 10.9883 13.3068C11.6643 13.983 12.5802 14.3647 13.5364 14.3686H16.2429V13.0123C16.2428 12.8925 16.1953 12.7777 16.1107 12.6929C16.0262 12.608 15.9115 12.5602 15.7917 12.5597H13.5364C13.0588 12.5582 12.6012 12.368 12.2632 12.0306C11.9252 11.6932 11.7342 11.2359 11.7318 10.7584V7.14024C11.7341 6.66237 11.9249 6.20473 12.2629 5.86685C12.6008 5.52898 13.0585 5.3382 13.5364 5.33603H15.3391C15.8175 5.33773 16.2757 5.52825 16.6143 5.86613C16.9529 6.20401 17.1443 6.66193 17.1469 7.14024V14.3686C17.1467 14.6051 17.0998 14.8392 17.009 15.0576C16.9183 15.276 16.7854 15.4744 16.6179 15.6414C16.4505 15.8085 16.2518 15.9409 16.0332 16.0311C15.8146 16.1214 15.5803 16.1677 15.3438 16.1674H12.1822C12.0628 16.1688 11.9488 16.2171 11.8647 16.3018C11.7805 16.3865 11.7331 16.5009 11.7325 16.6203V17.5233C11.7323 17.5826 11.7437 17.6414 11.7662 17.6962C11.7887 17.7511 11.8217 17.801 11.8635 17.8431C11.9053 17.8852 11.9549 17.9187 12.0096 17.9416C12.0643 17.9645 12.1229 17.9764 12.1822 17.9766H15.3399C15.8135 17.9766 16.2826 17.8833 16.7202 17.702C17.1578 17.5206 17.5554 17.2549 17.8902 16.9198C18.2251 16.5848 18.4907 16.1871 18.6718 15.7494C18.8529 15.3117 18.946 14.8426 18.9457 14.3689V7.14024C18.9427 6.18431 18.5619 5.26834 17.8863 4.59206C17.2107 3.91577 16.2951 3.53401 15.3391 3.53003Z" fill="white"/>
<path d="M56.851 3.53003H53.2436V4.88598C53.2435 4.94535 53.2551 5.00416 53.2778 5.05902C53.3006 5.11387 53.3339 5.16367 53.376 5.20555C53.4181 5.24744 53.4681 5.28057 53.523 5.30303C53.578 5.32548 53.6369 5.33682 53.6962 5.33639H56.8582C57.2259 5.33699 57.5847 5.45005 57.8863 5.66039C58.188 5.87074 58.4181 6.1683 58.5458 6.51317L54.5197 7.18197C53.6188 7.31701 52.8021 7.78737 52.2332 8.49886C51.6643 9.21036 51.3851 10.1105 51.4515 11.0191C51.518 11.9276 51.9251 12.7776 52.5915 13.3987C53.2579 14.0199 54.1343 14.3664 55.0453 14.3689H56.8582C57.8143 14.3665 58.7305 13.9851 59.4061 13.3084C60.0816 12.6317 60.4614 11.7149 60.4623 10.7587V7.14024C60.4625 6.66598 60.3692 6.19633 60.1878 5.75814C60.0064 5.31995 59.7404 4.92182 59.405 4.58652C59.0696 4.25122 58.6714 3.98533 58.2332 3.80405C57.7949 3.62276 57.3252 3.52965 56.851 3.53003ZM58.6609 10.7587C58.6602 11.2365 58.4699 11.6944 58.132 12.0321C57.794 12.3698 57.3359 12.5597 56.8582 12.56H55.0453C54.6133 12.5593 54.1958 12.4037 53.8688 12.1213C53.5419 11.8389 53.327 11.4486 53.2634 11.0213C53.1998 10.5939 53.2916 10.1579 53.5221 9.79256C53.7526 9.42717 54.1066 9.15661 54.5197 9.03006L58.6609 8.34652V10.7587Z" fill="white"/>
<path d="M50.0842 0.802003H49.1823C49.1229 0.802097 49.0641 0.813911 49.0093 0.836751C48.9544 0.859592 48.9046 0.89301 48.8627 0.935113C48.8208 0.977215 48.7876 1.02717 48.7651 1.08211C48.7425 1.13705 48.731 1.19591 48.7311 1.25531V2.60729H50.0842C50.2038 2.60681 50.3184 2.55889 50.4027 2.47404C50.487 2.38918 50.5342 2.27433 50.5339 2.15471V1.25531C50.5345 1.19592 50.5233 1.13701 50.5009 1.08199C50.4786 1.02697 50.4455 0.976932 50.4037 0.934772C50.3619 0.892612 50.3121 0.859179 50.2572 0.836389C50.2024 0.813599 50.1436 0.801905 50.0842 0.802003Z" fill="white"/>
<path d="M50.0842 3.50903H48.7311V13.8874C48.7318 14.0068 48.7796 14.1211 48.8641 14.2055C48.9485 14.2898 49.0629 14.3374 49.1823 14.3378H50.0842C50.1433 14.3378 50.2019 14.3262 50.2565 14.3035C50.3111 14.2809 50.3607 14.2477 50.4024 14.2059C50.4442 14.164 50.4773 14.1144 50.4999 14.0597C50.5224 14.0051 50.534 13.9465 50.5339 13.8874V3.96196C50.5342 3.84231 50.487 3.72743 50.4027 3.64252C50.3184 3.5576 50.2039 3.5096 50.0842 3.50903Z" fill="white"/>
<path d="M25.2664 3.53003H23.4579C22.5017 3.53269 21.5854 3.91414 20.9098 4.59084C20.2342 5.26754 19.8542 6.18436 19.8531 7.1406V10.7587C19.8532 11.7159 20.2334 12.6339 20.9101 13.3109C21.5868 13.9879 22.5047 14.3684 23.4619 14.3689H27.0724V13.0126C27.0725 12.8931 27.0253 12.7783 26.941 12.6935C26.8567 12.6087 26.7423 12.5607 26.6227 12.56H23.4568C23.0896 12.5602 22.7312 12.4477 22.4299 12.2378C22.1285 12.0279 21.8988 11.7307 21.7717 11.3861L25.7967 10.7195C26.698 10.5838 27.5147 10.1127 28.0834 9.40043C28.6521 8.68819 28.9308 7.78741 28.8636 6.87846C28.7964 5.96952 28.3883 5.11949 27.7211 4.49859C27.0539 3.87769 26.1768 3.53175 25.2653 3.53003H25.2664ZM25.7978 8.87105L21.6605 9.5546V7.14024C21.6612 6.66287 21.8508 6.20516 22.1878 5.86711C22.5248 5.52905 22.982 5.33812 23.4593 5.33603H25.2679C25.7001 5.33687 26.1178 5.49259 26.4451 5.77495C26.7725 6.0573 26.9878 6.4476 27.0521 6.87508C27.1163 7.30256 27.0253 7.73892 26.7954 8.10503C26.5656 8.47115 26.2122 8.74279 25.7992 8.87069L25.7978 8.87105Z" fill="white"/>
<path d="M5.41369 3.53003H1.80312V4.88598C1.80312 4.94519 1.8148 5.00382 1.83748 5.05851C1.86016 5.11321 1.8934 5.16288 1.9353 5.20472C1.97721 5.24655 2.02695 5.27972 2.08168 5.30231C2.13641 5.32491 2.19506 5.33649 2.25427 5.33639H5.41873C5.78637 5.33618 6.14518 5.44895 6.44659 5.65944C6.748 5.86993 6.97745 6.16795 7.10385 6.51317L3.07776 7.18197C2.1765 7.31707 1.35959 7.78772 0.790656 8.49964C0.221725 9.21156 -0.0571931 10.1122 0.00977597 11.021C0.076745 11.9299 0.484655 12.7799 1.15179 13.4007C1.81892 14.0216 2.69601 14.3674 3.60733 14.3689H5.41873C6.37505 14.3659 7.29129 13.9845 7.96728 13.308C8.64327 12.6316 9.02404 11.715 9.02642 10.7587V7.14024C9.02604 6.18243 8.6452 5.26401 7.9677 4.58697C7.29019 3.90994 6.3715 3.52974 5.41369 3.53003ZM7.21789 10.7587C7.21723 11.2358 7.02758 11.6932 6.69046 12.0308C6.35333 12.3684 5.89618 12.5587 5.41908 12.56H3.60768C3.17595 12.5591 2.75884 12.4035 2.432 12.1215C2.10515 11.8394 1.89021 11.4496 1.82616 11.0226C1.7621 10.5956 1.85318 10.1599 2.08287 9.79431C2.31256 9.42876 2.66566 9.15761 3.07812 9.03006L7.21933 8.34652L7.21789 10.7587Z" fill="white"/>
<path d="M27.071 2.15567V1.25627C27.0716 1.13674 27.0247 1.02188 26.9406 0.93689C26.8566 0.8519 26.7423 0.80374 26.6227 0.802979H22.1117C21.9915 0.803263 21.8763 0.851095 21.7913 0.936034C21.7063 1.02097 21.6584 1.1361 21.658 1.25627V2.60718H26.6227C26.7418 2.60604 26.8557 2.558 26.9396 2.47349C27.0235 2.38897 27.0707 2.27478 27.071 2.15567Z" fill="white"/>
<path d="M35.1879 3.61451H33.3891C32.9147 3.61361 32.4447 3.70629 32.0062 3.88726C31.5676 4.06823 31.169 4.33393 30.8333 4.66913C30.4976 5.00434 30.2312 5.40248 30.0496 5.84075C29.8679 6.27903 29.7745 6.74883 29.7746 7.22327V13.9915C29.7757 14.1112 29.824 14.2256 29.909 14.31C29.994 14.3943 30.1089 14.4417 30.2286 14.4419H31.1323C31.2515 14.441 31.3655 14.3933 31.4496 14.309C31.5338 14.2247 31.5814 14.1106 31.582 13.9915V7.22327C31.583 6.74464 31.7735 6.28589 32.1119 5.94741C32.4503 5.60894 32.9091 5.41831 33.3877 5.41727H35.1865C35.6651 5.41803 36.1239 5.60859 36.4622 5.94716C36.8005 6.28573 36.9907 6.74465 36.9911 7.22327V13.9915C36.9922 14.1107 37.0401 14.2247 37.1245 14.309C37.2089 14.3932 37.323 14.4409 37.4422 14.4419H38.7996V7.22327C38.7996 6.7491 38.7062 6.27958 38.5247 5.84153C38.3432 5.40349 38.0771 5.00552 37.7417 4.67036C37.4063 4.33521 37.0081 4.06945 36.5699 3.88828C36.1317 3.70711 35.6621 3.61408 35.1879 3.61451Z" fill="white"/>
<path d="M95.1922 3.6145H94.2888C94.1695 3.61516 94.0552 3.6628 93.9708 3.74711C93.8863 3.83141 93.8385 3.9456 93.8377 4.06492V10.8349C93.8375 11.3134 93.6473 11.7723 93.3089 12.1106C92.9705 12.4489 92.5116 12.639 92.0331 12.6391H90.2343C89.7557 12.6391 89.2966 12.4491 88.958 12.1108C88.6194 11.7725 88.429 11.3135 88.4287 10.8349V4.06636C88.4277 3.94706 88.3799 3.83294 88.2954 3.74866C88.211 3.66437 88.0968 3.61669 87.9775 3.61594H86.6212V10.8363C86.6215 11.3106 86.7152 11.7801 86.8971 12.2181C87.0789 12.6561 87.3453 13.0539 87.681 13.3889C88.0167 13.7239 88.4151 13.9894 88.8534 14.1703C89.2918 14.3513 89.7615 14.444 90.2358 14.4433H92.0346C92.9919 14.4439 93.9102 14.0642 94.5876 13.3878C95.265 12.7114 95.6461 11.7936 95.6469 10.8363V4.06636C95.6463 3.94622 95.598 3.83125 95.5128 3.74657C95.4276 3.66189 95.3123 3.61441 95.1922 3.6145Z" fill="white"/>
<path d="M39.7076 7.14011V10.7582C39.7084 11.716 40.0894 12.6342 40.7669 13.3112C41.4444 13.9882 42.363 14.3684 43.3207 14.3684H47.3778C47.4972 14.3676 47.6114 14.3194 47.6954 14.2346C47.7794 14.1497 47.8264 14.0349 47.826 13.9155V13.0121C47.8264 12.953 47.8151 12.8943 47.7927 12.8395C47.7704 12.7847 47.7375 12.7348 47.6958 12.6928C47.6542 12.6508 47.6047 12.6173 47.5501 12.5945C47.4955 12.5716 47.4369 12.5597 47.3778 12.5596H43.315C42.8373 12.5589 42.3793 12.369 42.0413 12.0313C41.7034 11.6937 41.513 11.2359 41.5118 10.7582V7.14011C41.5129 6.66212 41.7032 6.20398 42.0411 5.86588C42.3789 5.52779 42.837 5.33723 43.315 5.3359H47.3778C47.4368 5.336 47.4953 5.32441 47.5499 5.30178C47.6045 5.27915 47.654 5.24594 47.6957 5.20407C47.7374 5.16219 47.7703 5.11248 47.7927 5.0578C47.8151 5.00313 47.8264 4.94456 47.826 4.88549V3.52954H43.3207C42.8464 3.52935 42.3767 3.6226 41.9384 3.80395C41.5001 3.9853 41.1019 4.25121 40.7664 4.58648C40.4308 4.92176 40.1647 5.31984 39.983 5.75799C39.8014 6.19615 39.7078 6.66579 39.7076 7.14011Z" fill="white"/>
<path d="M96.5529 7.14012V10.7582C96.5529 11.2326 96.6464 11.7022 96.828 12.1404C97.0097 12.5786 97.2759 12.9767 97.6114 13.312C97.9469 13.6472 98.3452 13.9131 98.7835 14.0944C99.2219 14.2756 99.6916 14.3688 100.166 14.3684H104.222C104.341 14.3678 104.455 14.3197 104.539 14.2348C104.623 14.1498 104.67 14.035 104.67 13.9155V13.0121C104.67 12.9529 104.659 12.8942 104.637 12.8394C104.614 12.7845 104.581 12.7347 104.54 12.6926C104.498 12.6505 104.449 12.6171 104.394 12.5943C104.339 12.5715 104.281 12.5597 104.222 12.5596H100.16C99.6823 12.5594 99.2241 12.3696 98.886 12.0319C98.548 11.6941 98.3577 11.2361 98.3571 10.7582V7.14012C98.3575 6.66194 98.5476 6.20348 98.8856 5.86526C99.2237 5.52704 99.682 5.33667 100.16 5.33591H104.222C104.281 5.3361 104.339 5.32456 104.394 5.30197C104.448 5.27937 104.498 5.24617 104.54 5.20428C104.581 5.16238 104.614 5.11264 104.637 5.05792C104.659 5.00319 104.67 4.94459 104.67 4.88549V3.52954H100.166C99.6915 3.52898 99.2216 3.62197 98.7832 3.80319C98.3447 3.9844 97.9463 4.25029 97.6107 4.58564C97.2751 4.92099 97.009 5.31922 96.8274 5.75754C96.6459 6.19587 96.5526 6.66569 96.5529 7.14012Z" fill="white"/>
<path d="M105.576 7.14011V10.7582C105.576 11.2326 105.67 11.7022 105.852 12.1404C106.033 12.5786 106.299 12.9767 106.635 13.312C106.97 13.6472 107.369 13.9131 107.807 14.0944C108.245 14.2756 108.715 14.3688 109.189 14.3684H113.245C113.364 14.3676 113.479 14.3194 113.563 14.2346C113.647 14.1497 113.694 14.0349 113.693 13.9155V13.0121C113.694 12.953 113.682 12.8943 113.66 12.8395C113.638 12.7848 113.605 12.7349 113.563 12.6929C113.521 12.6509 113.472 12.6175 113.417 12.5946C113.363 12.5717 113.304 12.5598 113.245 12.5596H109.181C108.703 12.5591 108.245 12.3692 107.907 12.0315C107.57 11.6938 107.38 11.2359 107.379 10.7582V7.14011C107.38 6.66219 107.57 6.20394 107.907 5.86576C108.245 5.52759 108.703 5.33705 109.181 5.3359H113.244C113.303 5.33595 113.361 5.32433 113.416 5.30168C113.47 5.27904 113.52 5.24582 113.561 5.20396C113.603 5.16209 113.636 5.11241 113.658 5.05775C113.681 5.00309 113.692 4.94455 113.692 4.88549V3.52954H109.188C108.714 3.52916 108.244 3.62229 107.806 3.80359C107.367 3.98489 106.969 4.25081 106.634 4.58614C106.298 4.92148 106.032 5.31965 105.851 5.75788C105.669 6.19612 105.576 6.66581 105.576 7.14011Z" fill="white"/>
</svg>
