<svg width="164" height="65" viewBox="0 0 164 65" fill="none" xmlns="http://www.w3.org/2000/svg">
<g clip-path="url(#clip0_137_1204)">
<mask id="mask0_137_1204" style="mask-type:luminance" maskUnits="userSpaceOnUse" x="0" y="0" width="164" height="65">
<path d="M164 0H0V65H164V0Z" fill="white"/>
</mask>
<g mask="url(#mask0_137_1204)">
<path d="M8.65121 30.9273H0.11377V0.208675H8.65121C17.0811 0.208675 23.9374 7.05514 23.9374 15.4728V15.6631C23.9374 24.0808 17.0811 30.9273 8.65121 30.9273ZM2.36031 28.684H8.65121C15.8426 28.684 21.6909 22.841 21.6909 15.6631V15.4728C21.6909 8.29186 15.8395 2.45196 8.65121 2.45196H2.35723V28.687L2.36031 28.684Z" fill="#ED6E1D"/>
<path d="M51.3323 30.9273H29.4878V0.208675H51.3323V2.44889H31.7312V28.684H51.3323V30.9273Z" fill="#ED6E1D"/>
<path d="M45.4377 14.4448H30.3235V16.6881H45.4377V14.4448Z" fill="#ED6E1D"/>
<path d="M133.037 30.737C125.419 30.737 119.223 23.869 119.223 15.4237C119.223 6.97843 125.419 0.113544 133.037 0.113544C140.656 0.113544 146.851 6.9815 146.851 15.4268C146.851 23.8721 140.656 30.74 133.037 30.74V30.737ZM133.037 2.35682C126.66 2.35682 121.47 8.21822 121.47 15.4268C121.47 22.6354 126.66 28.4968 133.037 28.4968C139.414 28.4968 144.605 22.6354 144.605 15.4268C144.605 8.21822 139.414 2.35682 133.037 2.35682Z" fill="#ED6E1D"/>
<path d="M80.6631 31.1114C78.7577 23.4915 75.4971 18.3482 73.5608 15.795C77.5038 15.3961 80.5893 12.0634 80.5893 8.02181C80.5893 3.71323 77.0797 0.208675 72.7649 0.208675H57.1467V31.1114H59.3933V15.8349H70.6997C71.846 17.1484 76.0409 22.3868 78.3428 31.1114H80.66H80.6631ZM59.3963 2.44889H72.7711C75.8473 2.44889 78.349 4.94688 78.349 8.01874C78.349 11.0906 75.8473 13.5886 72.7711 13.5886H59.3963V2.44889Z" fill="#ED6E1D"/>
<path d="M111.423 0L99.7755 27.8431L87.209 0H85.6663V30.6602H87.9128V7.02139L98.623 30.7555H100.989L110.762 7.39578V30.6602H113.009V0H111.423Z" fill="#ED6E1D"/>
<path d="M154.378 38.2525C166.164 13.1958 165.024 0.0951323 161.886 0.190265C158.748 0.285397 156.468 4.36688 152.666 21.8313C151.396 27.6682 150.733 34.2323 150.41 40.3914C145.01 39.4216 141.528 42.8127 139.62 46.2834C136.068 49.2111 126.958 56.3368 123.602 55.3149C121.863 54.784 121.405 52.2369 121.78 49.386C123.901 48.582 129.169 46.0687 129.737 40.7934C130.45 34.1741 123.249 38.0162 120.969 41.8614C120.096 43.3344 119.131 46.0073 118.719 48.7385C117.281 49.7574 114.908 51.1291 113.27 50.4754C110.775 49.4781 112.984 42.4321 109.847 41.9319C106.709 41.4348 102.646 49.6929 101.933 48.4807C101.22 47.2716 104.358 39.9371 101.506 39.4401C98.654 38.9429 90.1687 52.6113 88.8165 51.614C88.8165 51.614 87.9622 50.7608 89.5295 45.1357C91.0969 39.5107 90.8142 39.5842 90.0274 39.3695C89.2437 39.1547 86.3211 43.5706 85.9646 51.614C85.6081 59.6573 94.4498 48.4101 94.4498 48.4101C94.4498 48.4101 98.7984 42.2879 99.4407 42.8587C100.083 43.4294 97.7995 52.5408 100.012 53.0378C102.222 53.535 106.998 44.7798 108.498 44.8504C109.994 44.9209 108.783 53.535 113.132 53.6056C115.345 53.6425 117.219 52.2247 118.535 50.8192C118.418 54.4556 119.61 57.6656 123.756 57.5919C130.539 57.4722 135.364 50.635 138.716 48.2291C138.096 49.7911 137.801 51.1965 137.801 52.0037C137.552 55.8857 141.394 61.5936 150.201 46.354C149.995 55.9164 150.49 63.3122 150.49 63.3122C150.681 64.9263 151.344 64.8313 151.344 64.8313C151.344 64.8313 152.866 67.8693 152.58 48.2199C152.549 46.0656 152.61 43.853 152.743 41.6158C153.278 40.5571 153.822 39.4523 154.386 38.2525H154.378ZM127.239 40.2226C130.53 41.5116 125.646 46.6364 121.995 48.1278C122.773 44.433 124.801 40.6338 127.239 40.2226ZM160.273 3.32043C161.032 2.74963 165.31 1.61111 159.987 21.0703C158.308 27.2017 155.711 33.2688 152.964 38.4365C154.451 21.233 159.633 3.79916 160.273 3.32043ZM140.748 50.7209C142.076 45.0006 147.924 43.0858 150.309 42.5335C150.299 42.7268 150.294 42.9201 150.288 43.1134C145.164 51.4422 140.361 55.7599 140.748 50.7209Z" fill="white"/>
<path d="M80.5156 44.8042H0V47.0813H80.5156V44.8042Z" fill="white"/>
</g>
</g>
<defs>
<clipPath id="clip0_137_1204">
<rect width="164" height="65" fill="white"/>
</clipPath>
</defs>
</svg>
