<svg width="41" height="41" viewBox="0 0 41 41" fill="none" xmlns="http://www.w3.org/2000/svg">
<circle cx="20.5" cy="20.5" r="20" stroke="white"/>
<path d="M20.4708 15.438C17.6875 15.438 15.4424 17.6831 15.4424 20.4665C15.4424 23.2498 17.6875 25.4949 20.4708 25.4949C23.2542 25.4949 25.4993 23.2498 25.4993 20.4665C25.4993 17.6831 23.2542 15.438 20.4708 15.438ZM20.4708 23.7356C18.6722 23.7356 17.2017 22.2695 17.2017 20.4665C17.2017 18.6634 18.6678 17.1973 20.4708 17.1973C22.2739 17.1973 23.74 18.6634 23.74 20.4665C23.74 22.2695 22.2695 23.7356 20.4708 23.7356ZM26.8778 15.2323C26.8778 15.8844 26.3527 16.4052 25.705 16.4052C25.0529 16.4052 24.5321 15.88 24.5321 15.2323C24.5321 14.5846 25.0573 14.0595 25.705 14.0595C26.3527 14.0595 26.8778 14.5846 26.8778 15.2323ZM30.2082 16.4227C30.1338 14.8516 29.775 13.4599 28.624 12.3133C27.4774 11.1667 26.0857 10.8079 24.5146 10.7291C22.8953 10.6372 18.042 10.6372 16.4227 10.7291C14.856 10.8035 13.4643 11.1623 12.3133 12.3089C11.1623 13.4556 10.8079 14.8472 10.7291 16.4183C10.6372 18.0376 10.6372 22.891 10.7291 24.5102C10.8035 26.0813 11.1623 27.473 12.3133 28.6196C13.4643 29.7662 14.8516 30.1251 16.4227 30.2038C18.042 30.2958 22.8953 30.2958 24.5146 30.2038C26.0857 30.1294 27.4774 29.7706 28.624 28.6196C29.7706 27.473 30.1294 26.0813 30.2082 24.5102C30.3001 22.891 30.3001 18.042 30.2082 16.4227ZM28.1163 26.2476C27.775 27.1054 27.1141 27.7662 26.252 28.112C24.961 28.624 21.8975 28.5058 20.4708 28.5058C19.0442 28.5058 15.9763 28.6196 14.6897 28.112C13.8319 27.7706 13.1711 27.1098 12.8254 26.2476C12.3133 24.9566 12.4315 21.8932 12.4315 20.4665C12.4315 19.0398 12.3177 15.972 12.8254 14.6853C13.1667 13.8275 13.8275 13.1667 14.6897 12.821C15.9807 12.3089 19.0442 12.4271 20.4708 12.4271C21.8975 12.4271 24.9654 12.3133 26.252 12.821C27.1098 13.1623 27.7706 13.8232 28.1163 14.6853C28.6284 15.9763 28.5102 19.0398 28.5102 20.4665C28.5102 21.8932 28.6284 24.961 28.1163 26.2476Z" fill="white"/>
</svg>
