<svg width="21" height="21" viewBox="0 0 21 21" fill="none" xmlns="http://www.w3.org/2000/svg">
<path d="M13.8449 12.7034C13.9593 12.6273 14.0909 12.5809 14.2278 12.5685C14.3646 12.556 14.5024 12.5779 14.6287 12.6322L19.4986 14.8141C19.6627 14.8843 19.7997 15.0057 19.889 15.1602C19.9784 15.3147 20.0153 15.494 19.9942 15.6712C19.8338 16.8701 19.2434 17.97 18.3328 18.7662C17.4222 19.5625 16.2534 20.0009 15.0438 20C11.3191 20 7.74705 18.5204 5.11333 15.8867C2.47961 13.2529 1 9.68085 1 5.95621C0.999076 4.74659 1.4375 3.5778 2.23375 2.6672C3.03 1.75661 4.12986 1.1662 5.32879 1.00577C5.50603 0.984714 5.68531 1.02162 5.83982 1.11098C5.99432 1.20033 6.11573 1.33731 6.18588 1.50143L8.36783 6.37545C8.42144 6.50064 8.44327 6.63714 8.43138 6.7728C8.41949 6.90846 8.37425 7.03908 8.29968 7.15303L6.09294 9.77694C6.01466 9.89506 5.96837 10.0315 5.9586 10.1728C5.94883 10.3142 5.9759 10.4557 6.03718 10.5834C6.89117 12.3317 8.69827 14.1171 10.4517 14.9628C10.5801 15.0238 10.7222 15.0503 10.864 15.0396C11.0058 15.0289 11.1424 14.9815 11.2602 14.9019L13.8449 12.7034Z" stroke="white" stroke-linecap="round" stroke-linejoin="round"/>
</svg>
