<svg width="19" height="19" viewBox="0 0 19 19" fill="none" xmlns="http://www.w3.org/2000/svg">
<path d="M4.54102 7.37337C4.54102 6.62192 4.83953 5.90125 5.37088 5.3699C5.90223 4.83855 6.6229 4.54004 7.37434 4.54004L8.79101 7.37337L7.70018 9.00873C8.13288 10.0427 8.95504 10.8648 9.98897 11.2975L11.6243 10.2067L14.4577 11.6234C14.4577 12.3748 14.1592 13.0955 13.6278 13.6268C13.0964 14.1582 12.3758 14.4567 11.6243 14.4567C9.74572 14.4567 7.94405 13.7104 6.61567 12.382C5.28729 11.0537 4.54102 9.25198 4.54102 7.37337Z" stroke="white" stroke-linecap="round" stroke-linejoin="round"/>
<path d="M5.24299 16.8567C7.02846 17.8901 9.12879 18.2388 11.1524 17.838C13.176 17.4371 14.9848 16.314 16.2415 14.678C17.4982 13.042 18.1171 11.0049 17.9827 8.94631C17.8483 6.88775 16.9699 4.94832 15.5111 3.4896C14.0524 2.03088 12.113 1.15244 10.0544 1.01806C7.99588 0.883684 5.9587 1.50253 4.32273 2.75924C2.68675 4.01594 1.56364 5.82471 1.16278 7.84833C0.76192 9.87195 1.11068 11.9723 2.14404 13.7578L1.03638 17.0648C0.994759 17.1896 0.988719 17.3235 1.01894 17.4516C1.04916 17.5796 1.11444 17.6967 1.20747 17.7897C1.30049 17.8828 1.41759 17.948 1.54564 17.9783C1.67368 18.0085 1.80762 18.0024 1.93242 17.9608L5.24299 16.8567Z" stroke="white" stroke-linecap="round" stroke-linejoin="round"/>
</svg>
