<svg width="41" height="41" viewBox="0 0 41 41" fill="none" xmlns="http://www.w3.org/2000/svg">
<circle cx="20.5" cy="20.5" r="20" stroke="white"/>
<path d="M30.7773 14.7446C30.5217 13.7823 29.7687 13.0244 28.8127 12.7672C27.0797 12.2999 20.1308 12.2999 20.1308 12.2999C20.1308 12.2999 13.182 12.2999 11.449 12.7672C10.4929 13.0244 9.73993 13.7823 9.48436 14.7446C9.02002 16.4888 9.02002 20.1279 9.02002 20.1279C9.02002 20.1279 9.02002 23.7671 9.48436 25.5113C9.73993 26.4736 10.4929 27.1999 11.449 27.4571C13.182 27.9244 20.1308 27.9244 20.1308 27.9244C20.1308 27.9244 27.0797 27.9244 28.8127 27.4571C29.7687 27.1999 30.5217 26.4736 30.7773 25.5113C31.2416 23.7671 31.2416 20.1279 31.2416 20.1279C31.2416 20.1279 31.2416 16.4888 30.7773 14.7446ZM17.8581 23.432V16.8239L23.666 20.128L17.8581 23.432Z" fill="white"/>
</svg>
